<svg id="Layer_1" data-name="Layer 1" xmlns="http://www.w3.org/2000/svg" viewBox="0 0 564 594.33"><defs><style>.cls-1{fill:#ffd949;}.cls-2{fill:#f4bf1a;}.cls-3{fill:#dca815;}.cls-4{isolation:isolate;}</style></defs><title>coin new</title><path class="cls-1" d="M541.65,816c-117.19,0-212.19-108.57-212.19-242.5S424.46,331,541.65,331,753.84,439.57,753.84,573.5,658.84,816,541.65,816" transform="translate(-277.5 -221.67)"/><path class="cls-2" d="M329.46,573.5c0-123.87,81.29-226,186.21-240.63a187.58,187.58,0,0,0-26-1.87C372.5,331,277.5,439.57,277.5,573.5S372.5,816,489.69,816a187.58,187.58,0,0,0,26-1.87C410.75,799.48,329.46,697.37,329.46,573.5" transform="translate(-277.5 -221.67)"/><path class="cls-2" d="M542.39,768.57h-.75a154.28,154.28,0,0,1-18.14-1.07,8.66,8.66,0,1,1,2-17.2,136.79,136.79,0,0,0,16.09,1,9,9,0,0,1,9,8.66,8.34,8.34,0,0,1-8.29,8.66m50.36-9.32a8.66,8.66,0,0,1-3.06-16.77,142.46,142.46,0,0,0,14.78-6.56,8.66,8.66,0,0,1,7.91,15.41,161.52,161.52,0,0,1-16.58,7.35,8.58,8.58,0,0,1-3,.57m-117.22-6.62a8.63,8.63,0,0,1-3.92-.94A168.3,168.3,0,0,1,456,742.61a8.66,8.66,0,1,1,9.49-14.49,145.82,145.82,0,0,0,14,8.12,8.67,8.67,0,0,1-3.92,16.39m174.16-30.82a8.66,8.66,0,0,1-6.14-14.75,162.94,162.94,0,0,0,10.88-12.15,8.66,8.66,0,0,1,13.44,10.93c-3.82,4.7-7.86,9.21-12,13.41a8.63,8.63,0,0,1-6.15,2.56M422.63,709.62a8.68,8.68,0,0,1-6.71-3.16c-3.75-4.59-7.37-9.44-10.72-14.42a8.66,8.66,0,1,1,14.36-9.69c3.06,4.54,6.34,8.95,9.76,13.12a8.65,8.65,0,0,1-6.69,14.15m265.14-44.49A8.67,8.67,0,0,1,679.82,653c2.18-5,4.16-10.14,5.9-15.33a8.66,8.66,0,0,1,16.42,5.53c-1.9,5.66-4.07,11.28-6.43,16.72a8.7,8.7,0,0,1-7.94,5.2m-298.16-15.3a8.69,8.69,0,0,1-8.2-5.88c-1.91-5.61-3.61-11.38-5.05-17.17a8.66,8.66,0,0,1,16.8-4.18c1.33,5.31,2.89,10.62,4.65,15.76a8.66,8.66,0,0,1-5.4,11,8.54,8.54,0,0,1-2.8.48m314.52-51.08c-.23,0-.45,0-.68,0a8.68,8.68,0,0,1-8-9.31c.41-5.25.62-10.61.62-15.92a8.91,8.91,0,0,1,8.66-8.94,8.43,8.43,0,0,1,8.66,8.38v.56c0,5.76-.23,11.56-.67,17.26a8.65,8.65,0,0,1-8.62,8M378.54,582.26a8.59,8.59,0,0,1-8.66-8.57v-.19c0-5.91.23-11.85.69-17.64a8.66,8.66,0,1,1,17.27,1.37c-.43,5.35-.64,10.82-.64,16.27a8.75,8.75,0,0,1-8.66,8.76m319.89-51.65a8.66,8.66,0,0,1-8.39-6.54c-1.34-5.32-2.91-10.62-4.67-15.77a8.66,8.66,0,1,1,16.38-5.61c1.93,5.59,3.63,11.36,5.09,17.14a8.66,8.66,0,0,1-6.28,10.51,8.08,8.08,0,0,1-2.13.27M389.5,514.88a8.78,8.78,0,0,1-2.79-.47,8.66,8.66,0,0,1-5.42-11c1.91-5.63,4.09-11.25,6.47-16.7a8.66,8.66,0,1,1,15.87,6.94c-2.19,5-4.18,10.15-5.93,15.32a8.68,8.68,0,0,1-8.2,5.89m281.21-46.71a8.67,8.67,0,0,1-7.18-3.81c-3.06-4.52-6.35-8.93-9.78-13.1a8.66,8.66,0,1,1,13.37-11c3.77,4.58,7.39,9.42,10.76,14.4a8.67,8.67,0,0,1-7.17,13.52M422.38,455a8.67,8.67,0,0,1-6.7-14.15c3.82-4.67,7.87-9.18,12.05-13.38A8.66,8.66,0,0,1,440,439.68c-3.78,3.81-7.46,7.88-10.93,12.14a8.62,8.62,0,0,1-6.71,3.18m199.9-34.91a8.59,8.59,0,0,1-4.71-1.4,148.86,148.86,0,0,0-14.05-8.09,8.66,8.66,0,0,1,7.82-15.46,162.21,162.21,0,0,1,15.68,9,8.66,8.66,0,0,1-4.74,15.92m-147.06-8.22a8.66,8.66,0,0,1-4-16.38,158.45,158.45,0,0,1,16.6-7.31,8.66,8.66,0,1,1,6.06,16.22,142.45,142.45,0,0,0-14.8,6.52,8.6,8.6,0,0,1-3.91.95m83.19-15.15a8.43,8.43,0,0,1-1-.06,136.26,136.26,0,0,0-15.76-.91,8.82,8.82,0,0,1-8.84-8.66,8.51,8.51,0,0,1,8.48-8.66h.36a152.76,152.76,0,0,1,17.76,1,8.66,8.66,0,0,1-1,17.26" transform="translate(-277.5 -221.67)"/><path class="cls-3" d="M329.45,582.16H277.5c.17,5.83.5,11.61,1,17.32h52q-.81-8.57-1.07-17.32" transform="translate(-277.5 -221.67)"/><path class="cls-3" d="M331.43,538.86H279.5c-.72,5.7-1.24,11.49-1.59,17.32h51.95c.37-5.83.85-11.62,1.57-17.32" transform="translate(-277.5 -221.67)"/><path class="cls-3" d="M334.21,625.46h-52q1.68,8.79,3.9,17.33h52q-2.21-8.53-3.89-17.33" transform="translate(-277.5 -221.67)"/><path class="cls-3" d="M346.33,668.77h-52c2.21,5.9,4.65,11.66,7.25,17.32h52q-3.9-8.48-7.22-17.32" transform="translate(-277.5 -221.67)"/><path class="cls-3" d="M340.48,495.55h-51.9c-1.69,5.69-3.27,11.45-4.58,17.33h52c1.32-5.86,2.78-11.65,4.46-17.33" transform="translate(-277.5 -221.67)"/><path class="cls-3" d="M357.73,452.25h-52c-2.86,5.64-5.55,11.41-8,17.32h52q3.69-8.86,8-17.32" transform="translate(-277.5 -221.67)"/><path class="cls-3" d="M393.08,400.29h-52q-7.4,8.25-14.05,17.32h52q6.67-9.06,14.07-17.32" transform="translate(-277.5 -221.67)"/><path class="cls-3" d="M446,357H394a209.18,209.18,0,0,0-25.43,17.32h52A209.62,209.62,0,0,1,446,357" transform="translate(-277.5 -221.67)"/><path class="cls-3" d="M372.93,720.73h-52q6,9,12.75,17.32h52q-6.74-8.31-12.79-17.32" transform="translate(-277.5 -221.67)"/><path class="cls-3" d="M358.32,764a216,216,0,0,0,21.86,17.32h52.09a214.07,214.07,0,0,1-22-17.32Z" transform="translate(-277.5 -221.67)"/><g class="cls-4"><path class="cls-2" d="M495.09,483.51a65.32,65.32,0,0,1,8.75.5,53,53,0,0,1,6.16,1.21l4.47,1.2a14.45,14.45,0,0,0,3.78.51,3.67,3.67,0,0,0,3.33-2.28,40.6,40.6,0,0,0,2.33-5.58q1.64-4.44,3.9-4.44,2,0,2.58,1.26a5.88,5.88,0,0,1,.56,2.41,15.84,15.84,0,0,1-.31,3.11c-.21,1.06-.52,2.44-.94,4.13s-.91,3.8-1.45,6.34-1.11,5.71-1.7,9.51q-.75,4.69-1.19,8.12t-.63,6.09c-.13,1.78-.28,3.39-.44,4.82s-.38,2.92-.63,4.44q-.76,4.83-3.27,4.83a2.05,2.05,0,0,1-2.14-1.59,11.36,11.36,0,0,1-.51-3.49v-9.89a39.76,39.76,0,0,0-1.7-12.56,21,21,0,0,0-4.65-8.12,16.5,16.5,0,0,0-7.05-4.32,29.5,29.5,0,0,0-8.74-1.27,23.21,23.21,0,0,0-8,1.4,19.19,19.19,0,0,0-6.73,4.12,20.41,20.41,0,0,0-4.66,6.66,21.46,21.46,0,0,0-1.76,8.88,27.85,27.85,0,0,0,3,12.56A59.55,59.55,0,0,0,485.41,534a142.68,142.68,0,0,0,11.13,11.73q6.22,5.91,12.84,12.12t12.83,12.94a106.85,106.85,0,0,1,11.14,14.27,76.3,76.3,0,0,1,7.92,16.05,54,54,0,0,1,3,18.27,62.15,62.15,0,0,1-4,23.15,50.12,50.12,0,0,1-10.83,16.94,45.31,45.31,0,0,1-15.85,10.4,52.23,52.23,0,0,1-19.25,3.55,54,54,0,0,1-13.15-1.52A59.7,59.7,0,0,1,470,668a49.54,49.54,0,0,1-9.12-5.52,52.45,52.45,0,0,1-6.8-6.15,86.83,86.83,0,0,0-8.8-8.88,12.16,12.16,0,0,0-7.93-3,9.4,9.4,0,0,0-4.91,1.65q-2.64,1.65-5.22,3.55t-4.84,3.56a7.07,7.07,0,0,1-3.78,1.65,2.37,2.37,0,0,1-2-.83,2.65,2.65,0,0,1-.63-1.58,4.85,4.85,0,0,1,1.89-3.3c.5-.51,1.49-1.44,3-2.79s3.29-3.13,5.48-5.33,4.63-4.91,7.36-8.12,5.6-6.94,8.62-11.17a95.56,95.56,0,0,0,7-11.22q2.77-5.27,4.78-9.14a60.68,60.68,0,0,1,3.59-6.15c1-1.52,2.2-2.29,3.46-2.29a2.46,2.46,0,0,1,2.45,1.15,5.57,5.57,0,0,1,.57,2.53,12.77,12.77,0,0,1-1.38,5c-.93,2-1.91,4.49-3,7.36a94.16,94.16,0,0,0-3,10,55.28,55.28,0,0,0-1.38,12.94,35.4,35.4,0,0,0,1.63,9.77,33.44,33.44,0,0,0,5.29,10.53,31.47,31.47,0,0,0,9.62,8.44A28.46,28.46,0,0,0,486.54,664a28.86,28.86,0,0,0,12.27-2.54,26.94,26.94,0,0,0,9.37-7.17,32.6,32.6,0,0,0,6-11A46.22,46.22,0,0,0,516.23,629a42.87,42.87,0,0,0-4.65-19.35,107.22,107.22,0,0,0-11.7-18.26q-7-9-15.23-17.58t-15.22-17.19a107.14,107.14,0,0,1-11.71-17.19,36.5,36.5,0,0,1-4.65-17.5,37.88,37.88,0,0,1,3.65-17.19,34.7,34.7,0,0,1,9.62-12,40.86,40.86,0,0,1,13.47-7A52.14,52.14,0,0,1,495.09,483.51Z" transform="translate(-277.5 -221.67)"/><path class="cls-2" d="M550,508.75a59.54,59.54,0,0,1,7.62-2c3.14-.64,6.18-1.29,9.12-2A50.56,50.56,0,0,0,581.54,499a36.81,36.81,0,0,0,10-9.07,55.37,55.37,0,0,0,7-12.43q2.9-7,5.79-16.05,2.52-7.86,5.1-11.1c1.72-2.16,3.63-3.23,5.72-3.23a4.17,4.17,0,0,1,4,2.15,12.38,12.38,0,0,1,1.13,5.71,45.12,45.12,0,0,1-1.13,8.82q-1.14,5.39-2.58,11.35T614,486.87A53.7,53.7,0,0,0,612.87,497a7.72,7.72,0,0,0,.82,3.62q.81,1.59,3.33,1.59a31.72,31.72,0,0,0,3.65-.26q2.13-.25,4.53-.51l5-.5c1.72-.17,3.33-.26,4.84-.26q5.41,0,5.41,3.43A2.68,2.68,0,0,1,639,506.6a8,8,0,0,1-3.78.76c-1.17,0-2.6,0-4.27.12s-3.49.28-5.41.57a56.77,56.77,0,0,0-5.79,1.21,27.87,27.87,0,0,0-5.41,2,17.59,17.59,0,0,0-5.73,4.44,28.28,28.28,0,0,0-3.58,5.46,90.31,90.31,0,0,0-4.53,12.17q-2.4,7.74-4.41,17.19t-3.33,19.8a157.75,157.75,0,0,0-1.32,20,103.78,103.78,0,0,0,2.26,23.28,52,52,0,0,0,6.29,16A26.13,26.13,0,0,0,609.6,639a24.77,24.77,0,0,0,11.95,3,22.26,22.26,0,0,0,8.56-1.46,17,17,0,0,0,5.78-3.8,14.51,14.51,0,0,0,3.28-5.2,17,17,0,0,0,1-5.65,9.15,9.15,0,0,0-1.82-5.77,40.94,40.94,0,0,0-4.09-4.51,32.59,32.59,0,0,1-4.09-4.69,11,11,0,0,1-1.83-6.6,12,12,0,0,1,3.21-8.5q3.21-3.42,8.87-3.42a13.36,13.36,0,0,1,4.85.89,10.7,10.7,0,0,1,4.15,2.91,15.68,15.68,0,0,1,3,5.14,21.89,21.89,0,0,1,1.13,7.42,51.18,51.18,0,0,1-2.26,14.91A37.92,37.92,0,0,1,644.07,637a37.06,37.06,0,0,1-12.71,9.64q-7.8,3.75-19,3.74a48.11,48.11,0,0,1-22.64-5.26,43,43,0,0,1-16.11-14.27,60.34,60.34,0,0,1-7.93-19,92.57,92.57,0,0,1-2.51-21.5,155.86,155.86,0,0,1,1.88-24.55q1.89-11.87,4.16-21.57t4.15-16.74a45.07,45.07,0,0,0,1.89-10.22c0-1.52-.43-2.45-1.26-2.79a9.25,9.25,0,0,0-3.4-.51c-.84,0-2,0-3.46.13s-3.08.17-4.84.25-3.61.18-5.54.26-3.78.13-5.54.13q-4.65,0-4.65-2.67Q546.56,509.89,550,508.75Z" transform="translate(-277.5 -221.67)"/></g><path class="cls-1" d="M689.21,349.27c29.71-31.82,49.91-53.62,79.65-85.47a17.55,17.55,0,0,1,2.78-2.46c11.42-8.08,22.54-3.47,26.78,3.56,3.13,5.16,1.64,13.39-3.51,20.18-.36.47-.76.92-1.16,1.35-30.36,32.53-48,52.63-78.54,85.32-5.85,7.19-16.09,8.7-23.24,4s-9.6-14.47-5.65-22.44A17.22,17.22,0,0,1,689.21,349.27Z" transform="translate(-277.5 -221.67)"/><path class="cls-1" d="M698.61,224.24c-6.89-5.33-18-1.88-23.74,5.8a18.62,18.62,0,0,0-2.55,4.93c-12.7,35.9-22.45,62.18-30.33,84.22a19.88,19.88,0,0,0,10.38,24.93,13.5,13.5,0,0,0,3.14,1c6.12,1.07,14.08-2.64,15.9-9.14,10.69-30.27,21.63-61.91,32.32-92.17C703.73,243.81,706.75,230.55,698.61,224.24Z" transform="translate(-277.5 -221.67)"/><path class="cls-1" d="M841.49,370c-.18-8.71-9.84-15.15-19.44-14.8a18.11,18.11,0,0,0-5.44,1.11c-35.9,12.71-62.45,21.67-84.54,29.41a19.89,19.89,0,0,0-12.85,23.76,13.47,13.47,0,0,0,1.19,3.06c3,5.44,10.92,9.29,17.11,6.61,30.26-10.73,61.74-22.13,92-32.86C829.5,386.25,841.71,380.25,841.49,370Z" transform="translate(-277.5 -221.67)"/></svg>